<svg xmlns="http://www.w3.org/2000/svg" xmlns:xlink="http://www.w3.org/1999/xlink" width="536pt" height="3932pt" viewBox="0.00 0.00 536.00 3932.00">
<g id="graph0" class="graph" transform="scale(1 1) rotate(0) translate(4 3928)">
<title>cuda_graph</title>
<polygon fill="white" stroke="none" points="-4,4 -4,-3928 531.82,-3928 531.82,4 -4,4"/>
<!-- n0 -->
<g id="node1" class="node">
<title>n0</title>
<polygon fill="#cfe8ff" stroke="black" points="375.18,-3924 254.92,-3924 254.92,-3888 375.18,-3888 375.18,-3924"/>
<text xml:space="preserve" text-anchor="middle" x="315.05" y="-3901.8" font-family="Helvetica,sans-Serif" font-size="14.00">t_rms_norm_fwd</text>
</g>
<!-- n1 -->
<g id="node2" class="node">
<title>n1</title>
<polygon fill="#cfe8ff" stroke="black" points="197.83,-3852 124.26,-3852 124.26,-3816 197.83,-3816 197.83,-3852"/>
<text xml:space="preserve" text-anchor="middle" x="161.05" y="-3829.8" font-family="Helvetica,sans-Serif" font-size="14.00">t_matmul</text>
</g>
<!-- n0&#45;&gt;n1 -->
<g id="edge1" class="edge">
<title>n0-&gt;n1</title>
<path fill="none" stroke="black" d="M276.58,-3887.52C255.99,-3878.16 230.44,-3866.54 208.61,-3856.62"/>
<polygon fill="black" stroke="black" points="210.15,-3853.48 199.6,-3852.52 207.26,-3859.85 210.15,-3853.48"/>
</g>
<!-- n2 -->
<g id="node3" class="node">
<title>n2</title>
<polygon fill="#cfe8ff" stroke="black" points="351.83,-3852 278.26,-3852 278.26,-3816 351.83,-3816 351.83,-3852"/>
<text xml:space="preserve" text-anchor="middle" x="315.05" y="-3829.8" font-family="Helvetica,sans-Serif" font-size="14.00">t_matmul</text>
</g>
<!-- n0&#45;&gt;n2 -->
<g id="edge2" class="edge">
<title>n0-&gt;n2</title>
<path fill="none" stroke="black" d="M315.05,-3887.7C315.05,-3880.41 315.05,-3871.73 315.05,-3863.54"/>
<polygon fill="black" stroke="black" points="318.55,-3863.62 315.05,-3853.62 311.55,-3863.62 318.55,-3863.62"/>
</g>
<!-- n3 -->
<g id="node4" class="node">
<title>n3</title>
<polygon fill="#cfe8ff" stroke="black" points="505.83,-3780 432.26,-3780 432.26,-3744 505.83,-3744 505.83,-3780"/>
<text xml:space="preserve" text-anchor="middle" x="469.05" y="-3757.8" font-family="Helvetica,sans-Serif" font-size="14.00">t_matmul</text>
</g>
<!-- n0&#45;&gt;n3 -->
<g id="edge3" class="edge">
<title>n0-&gt;n3</title>
<path fill="none" stroke="black" d="M333.93,-3887.59C361.09,-3862.54 411.33,-3816.22 442.3,-3787.66"/>
<polygon fill="black" stroke="black" points="444.4,-3790.49 449.38,-3781.14 439.65,-3785.34 444.4,-3790.49"/>
</g>
<!-- n4 -->
<g id="node5" class="node">
<title>n4</title>
<polygon fill="#cfe8ff" stroke="black" points="198.1,-3780 0,-3780 0,-3744 198.1,-3744 198.1,-3780"/>
<text xml:space="preserve" text-anchor="middle" x="99.05" y="-3757.8" font-family="Helvetica,sans-Serif" font-size="14.00">t_fused_rms_norm_rope_fwd</text>
</g>
<!-- n1&#45;&gt;n4 -->
<g id="edge4" class="edge">
<title>n1-&gt;n4</title>
<path fill="none" stroke="black" d="M145.72,-3815.7C138.51,-3807.56 129.77,-3797.69 121.81,-3788.7"/>
<polygon fill="black" stroke="black" points="124.45,-3786.4 115.2,-3781.24 119.21,-3791.04 124.45,-3786.4"/>
</g>
<!-- n5 -->
<g id="node6" class="node">
<title>n5</title>
<polygon fill="#cfe8ff" stroke="black" points="414.1,-3780 216,-3780 216,-3744 414.1,-3744 414.1,-3780"/>
<text xml:space="preserve" text-anchor="middle" x="315.05" y="-3757.8" font-family="Helvetica,sans-Serif" font-size="14.00">t_fused_rms_norm_rope_fwd</text>
</g>
<!-- n2&#45;&gt;n5 -->
<g id="edge5" class="edge">
<title>n2-&gt;n5</title>
<path fill="none" stroke="black" d="M315.05,-3815.7C315.05,-3808.41 315.05,-3799.73 315.05,-3791.54"/>
<polygon fill="black" stroke="black" points="318.55,-3791.62 315.05,-3781.62 311.55,-3791.62 318.55,-3791.62"/>
</g>
<!-- n6 -->
<g id="node7" class="node">
<title>n6</title>
<polygon fill="#cfe8ff" stroke="black" points="378.71,-3708 251.39,-3708 251.39,-3672 378.71,-3672 378.71,-3708"/>
<text xml:space="preserve" text-anchor="middle" x="315.05" y="-3685.8" font-family="Helvetica,sans-Serif" font-size="14.00">t_attn_fwd_0_125</text>
</g>
<!-- n3&#45;&gt;n6 -->
<g id="edge6" class="edge">
<title>n3-&gt;n6</title>
<path fill="none" stroke="black" d="M431.77,-3744.05C411.34,-3734.77 385.78,-3723.15 363.79,-3713.16"/>
<polygon fill="black" stroke="black" points="365.25,-3709.98 354.7,-3709.02 362.36,-3716.35 365.25,-3709.98"/>
</g>
<!-- n4&#45;&gt;n6 -->
<g id="edge7" class="edge">
<title>n4-&gt;n6</title>
<path fill="none" stroke="black" d="M153,-3743.52C182.62,-3733.92 219.55,-3721.95 250.67,-3711.86"/>
<polygon fill="black" stroke="black" points="251.54,-3715.26 259.97,-3708.85 249.38,-3708.6 251.54,-3715.26"/>
</g>
<!-- n5&#45;&gt;n6 -->
<g id="edge8" class="edge">
<title>n5-&gt;n6</title>
<path fill="none" stroke="black" d="M315.05,-3743.7C315.05,-3736.41 315.05,-3727.73 315.05,-3719.54"/>
<polygon fill="black" stroke="black" points="318.55,-3719.62 315.05,-3709.62 311.55,-3719.62 318.55,-3719.62"/>
</g>
<!-- n7 -->
<g id="node8" class="node">
<title>n7</title>
<polygon fill="#cfe8ff" stroke="black" points="384.91,-3636 245.19,-3636 245.19,-3600 384.91,-3600 384.91,-3636"/>
<text xml:space="preserve" text-anchor="middle" x="315.05" y="-3613.8" font-family="Helvetica,sans-Serif" font-size="14.00">t_matmul_with_bias</text>
</g>
<!-- n6&#45;&gt;n7 -->
<g id="edge9" class="edge">
<title>n6-&gt;n7</title>
<path fill="none" stroke="black" d="M315.05,-3671.7C315.05,-3664.41 315.05,-3655.73 315.05,-3647.54"/>
<polygon fill="black" stroke="black" points="318.55,-3647.62 315.05,-3637.62 311.55,-3647.62 318.55,-3647.62"/>
</g>
<!-- n8 -->
<g id="node9" class="node">
<title>n8</title>
<ellipse fill="#fff2b3" stroke="black" cx="315.05" cy="-3546" rx="90.45" ry="18"/>
<text xml:space="preserve" text-anchor="middle" x="315.05" y="-3541.8" font-family="Helvetica,sans-Serif" font-size="14.00">EVENT_RECORD</text>
</g>
<!-- n7&#45;&gt;n8 -->
<g id="edge10" class="edge">
<title>n7-&gt;n8</title>
<path fill="none" stroke="black" d="M315.05,-3599.7C315.05,-3592.41 315.05,-3583.73 315.05,-3575.54"/>
<polygon fill="black" stroke="black" points="318.55,-3575.62 315.05,-3565.62 311.55,-3575.62 318.55,-3575.62"/>
</g>
<!-- n9 -->
<g id="node10" class="node">
<title>n9</title>
<polygon fill="#cfe8ff" stroke="black" points="375.18,-3492 254.92,-3492 254.92,-3456 375.18,-3456 375.18,-3492"/>
<text xml:space="preserve" text-anchor="middle" x="315.05" y="-3469.8" font-family="Helvetica,sans-Serif" font-size="14.00">t_rms_norm_fwd</text>
</g>
<!-- n8&#45;&gt;n9 -->
<g id="edge11" class="edge">
<title>n8-&gt;n9</title>
<path fill="none" stroke="black" d="M315.05,-3527.7C315.05,-3520.41 315.05,-3511.73 315.05,-3503.54"/>
<polygon fill="black" stroke="black" points="318.55,-3503.62 315.05,-3493.62 311.55,-3503.62 318.55,-3503.62"/>
</g>
<!-- n10 -->
<g id="node11" class="node">
<title>n10</title>
<polygon fill="#cfe8ff" stroke="black" points="305.83,-3420 232.26,-3420 232.26,-3384 305.83,-3384 305.83,-3420"/>
<text xml:space="preserve" text-anchor="middle" x="269.05" y="-3397.8" font-family="Helvetica,sans-Serif" font-size="14.00">t_matmul</text>
</g>
<!-- n9&#45;&gt;n10 -->
<g id="edge12" class="edge">
<title>n9-&gt;n10</title>
<path fill="none" stroke="black" d="M303.68,-3455.7C298.5,-3447.81 292.25,-3438.3 286.49,-3429.55"/>
<polygon fill="black" stroke="black" points="289.54,-3427.8 281.12,-3421.37 283.69,-3431.65 289.54,-3427.8"/>
</g>
<!-- n11 -->
<g id="node12" class="node">
<title>n11</title>
<polygon fill="#cfe8ff" stroke="black" points="397.83,-3420 324.26,-3420 324.26,-3384 397.83,-3384 397.83,-3420"/>
<text xml:space="preserve" text-anchor="middle" x="361.05" y="-3397.8" font-family="Helvetica,sans-Serif" font-size="14.00">t_matmul</text>
</g>
<!-- n9&#45;&gt;n11 -->
<g id="edge13" class="edge">
<title>n9-&gt;n11</title>
<path fill="none" stroke="black" d="M326.42,-3455.7C331.6,-3447.81 337.85,-3438.3 343.6,-3429.55"/>
<polygon fill="black" stroke="black" points="346.41,-3431.65 348.98,-3421.37 340.56,-3427.8 346.41,-3431.65"/>
</g>
<!-- n12 -->
<g id="node13" class="node">
<title>n12</title>
<polygon fill="#cfe8ff" stroke="black" points="363.12,-3348 266.97,-3348 266.97,-3312 363.12,-3312 363.12,-3348"/>
<text xml:space="preserve" text-anchor="middle" x="315.05" y="-3325.8" font-family="Helvetica,sans-Serif" font-size="14.00">t_swiglu_fwd</text>
</g>
<!-- n10&#45;&gt;n12 -->
<g id="edge14" class="edge">
<title>n10-&gt;n12</title>
<path fill="none" stroke="black" d="M280.42,-3383.7C285.6,-3375.81 291.85,-3366.3 297.6,-3357.55"/>
<polygon fill="black" stroke="black" points="300.41,-3359.65 302.98,-3349.37 294.56,-3355.8 300.41,-3359.65"/>
</g>
<!-- n11&#45;&gt;n12 -->
<g id="edge15" class="edge">
<title>n11-&gt;n12</title>
<path fill="none" stroke="black" d="M349.68,-3383.7C344.5,-3375.81 338.25,-3366.3 332.49,-3357.55"/>
<polygon fill="black" stroke="black" points="335.54,-3355.8 327.12,-3349.37 329.69,-3359.65 335.54,-3355.8"/>
</g>
<!-- n13 -->
<g id="node14" class="node">
<title>n13</title>
<polygon fill="#cfe8ff" stroke="black" points="384.91,-3276 245.19,-3276 245.19,-3240 384.91,-3240 384.91,-3276"/>
<text xml:space="preserve" text-anchor="middle" x="315.05" y="-3253.8" font-family="Helvetica,sans-Serif" font-size="14.00">t_matmul_with_bias</text>
</g>
<!-- n12&#45;&gt;n13 -->
<g id="edge16" class="edge">
<title>n12-&gt;n13</title>
<path fill="none" stroke="black" d="M315.05,-3311.7C315.05,-3304.41 315.05,-3295.73 315.05,-3287.54"/>
<polygon fill="black" stroke="black" points="318.55,-3287.62 315.05,-3277.62 311.55,-3287.62 318.55,-3287.62"/>
</g>
<!-- n14 -->
<g id="node15" class="node">
<title>n14</title>
<ellipse fill="#fff2b3" stroke="black" cx="315.05" cy="-3186" rx="90.45" ry="18"/>
<text xml:space="preserve" text-anchor="middle" x="315.05" y="-3181.8" font-family="Helvetica,sans-Serif" font-size="14.00">EVENT_RECORD</text>
</g>
<!-- n13&#45;&gt;n14 -->
<g id="edge17" class="edge">
<title>n13-&gt;n14</title>
<path fill="none" stroke="black" d="M315.05,-3239.7C315.05,-3232.41 315.05,-3223.73 315.05,-3215.54"/>
<polygon fill="black" stroke="black" points="318.55,-3215.62 315.05,-3205.62 311.55,-3215.62 318.55,-3215.62"/>
</g>
<!-- n15 -->
<g id="node16" class="node">
<title>n15</title>
<polygon fill="#cfe8ff" stroke="black" points="375.18,-3132 254.92,-3132 254.92,-3096 375.18,-3096 375.18,-3132"/>
<text xml:space="preserve" text-anchor="middle" x="315.05" y="-3109.8" font-family="Helvetica,sans-Serif" font-size="14.00">t_rms_norm_fwd</text>
</g>
<!-- n14&#45;&gt;n15 -->
<g id="edge18" class="edge">
<title>n14-&gt;n15</title>
<path fill="none" stroke="black" d="M315.05,-3167.7C315.05,-3160.41 315.05,-3151.73 315.05,-3143.54"/>
<polygon fill="black" stroke="black" points="318.55,-3143.62 315.05,-3133.62 311.55,-3143.62 318.55,-3143.62"/>
</g>
<!-- n16 -->
<g id="node17" class="node">
<title>n16</title>
<polygon fill="#cfe8ff" stroke="black" points="351.83,-3060 278.26,-3060 278.26,-3024 351.83,-3024 351.83,-3060"/>
<text xml:space="preserve" text-anchor="middle" x="315.05" y="-3037.8" font-family="Helvetica,sans-Serif" font-size="14.00">t_matmul</text>
</g>
<!-- n15&#45;&gt;n16 -->
<g id="edge19" class="edge">
<title>n15-&gt;n16</title>
<path fill="none" stroke="black" d="M315.05,-3095.7C315.05,-3088.41 315.05,-3079.73 315.05,-3071.54"/>
<polygon fill="black" stroke="black" points="318.55,-3071.62 315.05,-3061.62 311.55,-3071.62 318.55,-3071.62"/>
</g>
<!-- n17 -->
<g id="node18" class="node">
<title>n17</title>
<polygon fill="#cfe8ff" stroke="black" points="389.97,-2988 240.12,-2988 240.12,-2952 389.97,-2952 389.97,-2988"/>
<text xml:space="preserve" text-anchor="middle" x="315.05" y="-2965.8" font-family="Helvetica,sans-Serif" font-size="14.00">cross_entropy_kernel</text>
</g>
<!-- n16&#45;&gt;n17 -->
<g id="edge20" class="edge">
<title>n16-&gt;n17</title>
<path fill="none" stroke="black" d="M315.05,-3023.7C315.05,-3016.41 315.05,-3007.73 315.05,-2999.54"/>
<polygon fill="black" stroke="black" points="318.55,-2999.62 315.05,-2989.62 311.55,-2999.62 318.55,-2999.62"/>
</g>
<!-- n18 -->
<g id="node19" class="node">
<title>n18</title>
<polygon fill="#cfe8ff" stroke="black" points="314.41,-2844 209.69,-2844 209.69,-2808 314.41,-2808 314.41,-2844"/>
<text xml:space="preserve" text-anchor="middle" x="262.05" y="-2821.8" font-family="Helvetica,sans-Serif" font-size="14.00">t_reduce_sum</text>
</g>
<!-- n17&#45;&gt;n18 -->
<g id="edge21" class="edge">
<title>n17-&gt;n18</title>
<path fill="none" stroke="black" d="M308.55,-2951.59C299.52,-2927.4 283.09,-2883.36 272.37,-2854.65"/>
<polygon fill="black" stroke="black" points="275.74,-2853.67 268.96,-2845.53 269.18,-2856.12 275.74,-2853.67"/>
</g>
<!-- n19 -->
<g id="node20" class="node">
<title>n19</title>
<polygon fill="#cfe8ff" stroke="black" points="394.83,-2916 321.26,-2916 321.26,-2880 394.83,-2880 394.83,-2916"/>
<text xml:space="preserve" text-anchor="middle" x="358.05" y="-2893.8" font-family="Helvetica,sans-Serif" font-size="14.00">t_matmul</text>
</g>
<!-- n17&#45;&gt;n19 -->
<g id="edge22" class="edge">
<title>n17-&gt;n19</title>
<path fill="none" stroke="black" d="M325.68,-2951.7C330.47,-2943.9 336.24,-2934.51 341.57,-2925.83"/>
<polygon fill="black" stroke="black" points="344.5,-2927.75 346.75,-2917.39 338.53,-2924.08 344.5,-2927.75"/>
</g>
<!-- n21 -->
<g id="node22" class="node">
<title>n21</title>
<polygon fill="#cfe8ff" stroke="black" points="377.12,-2772 252.97,-2772 252.97,-2736 377.12,-2736 377.12,-2772"/>
<text xml:space="preserve" text-anchor="middle" x="315.05" y="-2749.8" font-family="Helvetica,sans-Serif" font-size="14.00">t_rms_norm_bwd</text>
</g>
<!-- n18&#45;&gt;n21 -->
<g id="edge23" class="edge">
<title>n18-&gt;n21</title>
<path fill="none" stroke="black" d="M275.15,-2807.7C281.18,-2799.73 288.47,-2790.1 295.16,-2781.26"/>
<polygon fill="black" stroke="black" points="297.94,-2783.4 301.18,-2773.31 292.36,-2779.17 297.94,-2783.4"/>
</g>
<!-- n20 -->
<g id="node21" class="node">
<title>n20</title>
<polygon fill="#cfe8ff" stroke="black" points="405.83,-2844 332.26,-2844 332.26,-2808 405.83,-2808 405.83,-2844"/>
<text xml:space="preserve" text-anchor="middle" x="369.05" y="-2821.8" font-family="Helvetica,sans-Serif" font-size="14.00">t_matmul</text>
</g>
<!-- n19&#45;&gt;n20 -->
<g id="edge24" class="edge">
<title>n19-&gt;n20</title>
<path fill="none" stroke="black" d="M360.77,-2879.7C361.93,-2872.32 363.31,-2863.52 364.61,-2855.25"/>
<polygon fill="black" stroke="black" points="368.03,-2856.02 366.13,-2845.6 361.12,-2854.93 368.03,-2856.02"/>
</g>
<!-- n20&#45;&gt;n21 -->
<g id="edge25" class="edge">
<title>n20-&gt;n21</title>
<path fill="none" stroke="black" d="M355.7,-2807.7C349.49,-2799.64 341.97,-2789.89 335.09,-2780.98"/>
<polygon fill="black" stroke="black" points="338.05,-2779.08 329.17,-2773.3 332.5,-2783.36 338.05,-2779.08"/>
</g>
<!-- n22 -->
<g id="node23" class="node">
<title>n22</title>
<polygon fill="#cfe8ff" stroke="black" points="398.53,-2700 231.57,-2700 231.57,-2664 398.53,-2664 398.53,-2700"/>
<text xml:space="preserve" text-anchor="middle" x="315.05" y="-2677.8" font-family="Helvetica,sans-Serif" font-size="14.00">t_rms_norm_dw_reduce</text>
</g>
<!-- n21&#45;&gt;n22 -->
<g id="edge26" class="edge">
<title>n21-&gt;n22</title>
<path fill="none" stroke="black" d="M315.05,-2735.7C315.05,-2728.41 315.05,-2719.73 315.05,-2711.54"/>
<polygon fill="black" stroke="black" points="318.55,-2711.62 315.05,-2701.62 311.55,-2711.62 318.55,-2711.62"/>
</g>
<!-- n23 -->
<g id="node24" class="node">
<title>n23</title>
<polygon fill="#cfe8ff" stroke="black" points="375.18,-2628 254.92,-2628 254.92,-2592 375.18,-2592 375.18,-2628"/>
<text xml:space="preserve" text-anchor="middle" x="315.05" y="-2605.8" font-family="Helvetica,sans-Serif" font-size="14.00">t_rms_norm_fwd</text>
</g>
<!-- n22&#45;&gt;n23 -->
<g id="edge27" class="edge">
<title>n22-&gt;n23</title>
<path fill="none" stroke="black" d="M315.05,-2663.7C315.05,-2656.41 315.05,-2647.73 315.05,-2639.54"/>
<polygon fill="black" stroke="black" points="318.55,-2639.62 315.05,-2629.62 311.55,-2639.62 318.55,-2639.62"/>
</g>
<!-- n24 -->
<g id="node25" class="node">
<title>n24</title>
<polygon fill="#cfe8ff" stroke="black" points="305.83,-2556 232.26,-2556 232.26,-2520 305.83,-2520 305.83,-2556"/>
<text xml:space="preserve" text-anchor="middle" x="269.05" y="-2533.8" font-family="Helvetica,sans-Serif" font-size="14.00">t_matmul</text>
</g>
<!-- n23&#45;&gt;n24 -->
<g id="edge28" class="edge">
<title>n23-&gt;n24</title>
<path fill="none" stroke="black" d="M303.68,-2591.7C298.5,-2583.81 292.25,-2574.3 286.49,-2565.55"/>
<polygon fill="black" stroke="black" points="289.54,-2563.8 281.12,-2557.37 283.69,-2567.65 289.54,-2563.8"/>
</g>
<!-- n25 -->
<g id="node26" class="node">
<title>n25</title>
<polygon fill="#cfe8ff" stroke="black" points="397.83,-2556 324.26,-2556 324.26,-2520 397.83,-2520 397.83,-2556"/>
<text xml:space="preserve" text-anchor="middle" x="361.05" y="-2533.8" font-family="Helvetica,sans-Serif" font-size="14.00">t_matmul</text>
</g>
<!-- n23&#45;&gt;n25 -->
<g id="edge29" class="edge">
<title>n23-&gt;n25</title>
<path fill="none" stroke="black" d="M326.42,-2591.7C331.6,-2583.81 337.85,-2574.3 343.6,-2565.55"/>
<polygon fill="black" stroke="black" points="346.41,-2567.65 348.98,-2557.37 340.56,-2563.8 346.41,-2567.65"/>
</g>
<!-- n26 -->
<g id="node27" class="node">
<title>n26</title>
<polygon fill="#cfe8ff" stroke="black" points="363.12,-2484 266.97,-2484 266.97,-2448 363.12,-2448 363.12,-2484"/>
<text xml:space="preserve" text-anchor="middle" x="315.05" y="-2461.8" font-family="Helvetica,sans-Serif" font-size="14.00">t_swiglu_fwd</text>
</g>
<!-- n24&#45;&gt;n26 -->
<g id="edge30" class="edge">
<title>n24-&gt;n26</title>
<path fill="none" stroke="black" d="M280.42,-2519.7C285.6,-2511.81 291.85,-2502.3 297.6,-2493.55"/>
<polygon fill="black" stroke="black" points="300.41,-2495.65 302.98,-2485.37 294.56,-2491.8 300.41,-2495.65"/>
</g>
<!-- n25&#45;&gt;n26 -->
<g id="edge31" class="edge">
<title>n25-&gt;n26</title>
<path fill="none" stroke="black" d="M349.68,-2519.7C344.5,-2511.81 338.25,-2502.3 332.49,-2493.55"/>
<polygon fill="black" stroke="black" points="335.54,-2491.8 327.12,-2485.37 329.69,-2495.65 335.54,-2491.8"/>
</g>
<!-- n27 -->
<g id="node28" class="node">
<title>n27</title>
<polygon fill="#cfe8ff" stroke="black" points="384.91,-2412 245.19,-2412 245.19,-2376 384.91,-2376 384.91,-2412"/>
<text xml:space="preserve" text-anchor="middle" x="315.05" y="-2389.8" font-family="Helvetica,sans-Serif" font-size="14.00">t_matmul_with_bias</text>
</g>
<!-- n26&#45;&gt;n27 -->
<g id="edge32" class="edge">
<title>n26-&gt;n27</title>
<path fill="none" stroke="black" d="M315.05,-2447.7C315.05,-2440.41 315.05,-2431.73 315.05,-2423.54"/>
<polygon fill="black" stroke="black" points="318.55,-2423.62 315.05,-2413.62 311.55,-2423.62 318.55,-2423.62"/>
</g>
<!-- n28 -->
<g id="node29" class="node">
<title>n28</title>
<ellipse fill="#fff2b3" stroke="black" cx="315.05" cy="-2322" rx="90.45" ry="18"/>
<text xml:space="preserve" text-anchor="middle" x="315.05" y="-2317.8" font-family="Helvetica,sans-Serif" font-size="14.00">EVENT_RECORD</text>
</g>
<!-- n27&#45;&gt;n28 -->
<g id="edge33" class="edge">
<title>n27-&gt;n28</title>
<path fill="none" stroke="black" d="M315.05,-2375.7C315.05,-2368.41 315.05,-2359.73 315.05,-2351.54"/>
<polygon fill="black" stroke="black" points="318.55,-2351.62 315.05,-2341.62 311.55,-2351.62 318.55,-2351.62"/>
</g>
<!-- n29 -->
<g id="node30" class="node">
<title>n29</title>
<polygon fill="#cfe8ff" stroke="black" points="351.83,-2268 278.26,-2268 278.26,-2232 351.83,-2232 351.83,-2268"/>
<text xml:space="preserve" text-anchor="middle" x="315.05" y="-2245.8" font-family="Helvetica,sans-Serif" font-size="14.00">t_matmul</text>
</g>
<!-- n28&#45;&gt;n29 -->
<g id="edge34" class="edge">
<title>n28-&gt;n29</title>
<path fill="none" stroke="black" d="M315.05,-2303.7C315.05,-2296.41 315.05,-2287.73 315.05,-2279.54"/>
<polygon fill="black" stroke="black" points="318.55,-2279.62 315.05,-2269.62 311.55,-2279.62 318.55,-2279.62"/>
</g>
<!-- n30 -->
<g id="node31" class="node">
<title>n30</title>
<polygon fill="#cfe8ff" stroke="black" points="351.83,-2196 278.26,-2196 278.26,-2160 351.83,-2160 351.83,-2196"/>
<text xml:space="preserve" text-anchor="middle" x="315.05" y="-2173.8" font-family="Helvetica,sans-Serif" font-size="14.00">t_matmul</text>
</g>
<!-- n29&#45;&gt;n30 -->
<g id="edge35" class="edge">
<title>n29-&gt;n30</title>
<path fill="none" stroke="black" d="M315.05,-2231.7C315.05,-2224.41 315.05,-2215.73 315.05,-2207.54"/>
<polygon fill="black" stroke="black" points="318.55,-2207.62 315.05,-2197.62 311.55,-2207.62 318.55,-2207.62"/>
</g>
<!-- n31 -->
<g id="node32" class="node">
<title>n31</title>
<polygon fill="#cfe8ff" stroke="black" points="365.07,-2124 265.02,-2124 265.02,-2088 365.07,-2088 365.07,-2124"/>
<text xml:space="preserve" text-anchor="middle" x="315.05" y="-2101.8" font-family="Helvetica,sans-Serif" font-size="14.00">t_swiglu_bwd</text>
</g>
<!-- n30&#45;&gt;n31 -->
<g id="edge36" class="edge">
<title>n30-&gt;n31</title>
<path fill="none" stroke="black" d="M315.05,-2159.7C315.05,-2152.41 315.05,-2143.73 315.05,-2135.54"/>
<polygon fill="black" stroke="black" points="318.55,-2135.62 315.05,-2125.62 311.55,-2135.62 318.55,-2135.62"/>
</g>
<!-- n32 -->
<g id="node33" class="node">
<title>n32</title>
<polygon fill="#cfe8ff" stroke="black" points="351.83,-2052 278.26,-2052 278.26,-2016 351.83,-2016 351.83,-2052"/>
<text xml:space="preserve" text-anchor="middle" x="315.05" y="-2029.8" font-family="Helvetica,sans-Serif" font-size="14.00">t_matmul</text>
</g>
<!-- n31&#45;&gt;n32 -->
<g id="edge37" class="edge">
<title>n31-&gt;n32</title>
<path fill="none" stroke="black" d="M315.05,-2087.7C315.05,-2080.41 315.05,-2071.73 315.05,-2063.54"/>
<polygon fill="black" stroke="black" points="318.55,-2063.62 315.05,-2053.62 311.55,-2063.62 318.55,-2063.62"/>
</g>
<!-- n33 -->
<g id="node34" class="node">
<title>n33</title>
<polygon fill="#cfe8ff" stroke="black" points="351.83,-1980 278.26,-1980 278.26,-1944 351.83,-1944 351.83,-1980"/>
<text xml:space="preserve" text-anchor="middle" x="315.05" y="-1957.8" font-family="Helvetica,sans-Serif" font-size="14.00">t_matmul</text>
</g>
<!-- n32&#45;&gt;n33 -->
<g id="edge38" class="edge">
<title>n32-&gt;n33</title>
<path fill="none" stroke="black" d="M315.05,-2015.7C315.05,-2008.41 315.05,-1999.73 315.05,-1991.54"/>
<polygon fill="black" stroke="black" points="318.55,-1991.62 315.05,-1981.62 311.55,-1991.62 318.55,-1991.62"/>
</g>
<!-- n34 -->
<g id="node35" class="node">
<title>n34</title>
<polygon fill="#cfe8ff" stroke="black" points="351.83,-1908 278.26,-1908 278.26,-1872 351.83,-1872 351.83,-1908"/>
<text xml:space="preserve" text-anchor="middle" x="315.05" y="-1885.8" font-family="Helvetica,sans-Serif" font-size="14.00">t_matmul</text>
</g>
<!-- n33&#45;&gt;n34 -->
<g id="edge39" class="edge">
<title>n33-&gt;n34</title>
<path fill="none" stroke="black" d="M315.05,-1943.7C315.05,-1936.41 315.05,-1927.73 315.05,-1919.54"/>
<polygon fill="black" stroke="black" points="318.55,-1919.62 315.05,-1909.62 311.55,-1919.62 318.55,-1919.62"/>
</g>
<!-- n35 -->
<g id="node36" class="node">
<title>n35</title>
<polygon fill="#cfe8ff" stroke="black" points="384.91,-1836 245.19,-1836 245.19,-1800 384.91,-1800 384.91,-1836"/>
<text xml:space="preserve" text-anchor="middle" x="315.05" y="-1813.8" font-family="Helvetica,sans-Serif" font-size="14.00">t_matmul_with_bias</text>
</g>
<!-- n34&#45;&gt;n35 -->
<g id="edge40" class="edge">
<title>n34-&gt;n35</title>
<path fill="none" stroke="black" d="M315.05,-1871.7C315.05,-1864.41 315.05,-1855.73 315.05,-1847.54"/>
<polygon fill="black" stroke="black" points="318.55,-1847.62 315.05,-1837.62 311.55,-1847.62 318.55,-1847.62"/>
</g>
<!-- n36 -->
<g id="node37" class="node">
<title>n36</title>
<polygon fill="#cfe8ff" stroke="black" points="421.49,-1764 208.61,-1764 208.61,-1728 421.49,-1728 421.49,-1764"/>
<text xml:space="preserve" text-anchor="middle" x="315.05" y="-1741.8" font-family="Helvetica,sans-Serif" font-size="14.00">t_rms_norm_bwd_with_dx_bias</text>
</g>
<!-- n35&#45;&gt;n36 -->
<g id="edge41" class="edge">
<title>n35-&gt;n36</title>
<path fill="none" stroke="black" d="M315.05,-1799.7C315.05,-1792.41 315.05,-1783.73 315.05,-1775.54"/>
<polygon fill="black" stroke="black" points="318.55,-1775.62 315.05,-1765.62 311.55,-1775.62 318.55,-1775.62"/>
</g>
<!-- n37 -->
<g id="node38" class="node">
<title>n37</title>
<polygon fill="#cfe8ff" stroke="black" points="398.53,-1692 231.57,-1692 231.57,-1656 398.53,-1656 398.53,-1692"/>
<text xml:space="preserve" text-anchor="middle" x="315.05" y="-1669.8" font-family="Helvetica,sans-Serif" font-size="14.00">t_rms_norm_dw_reduce</text>
</g>
<!-- n36&#45;&gt;n37 -->
<g id="edge42" class="edge">
<title>n36-&gt;n37</title>
<path fill="none" stroke="black" d="M315.05,-1727.7C315.05,-1720.41 315.05,-1711.73 315.05,-1703.54"/>
<polygon fill="black" stroke="black" points="318.55,-1703.62 315.05,-1693.62 311.55,-1703.62 318.55,-1703.62"/>
</g>
<!-- n38 -->
<g id="node39" class="node">
<title>n38</title>
<ellipse fill="#fff2b3" stroke="black" cx="315.05" cy="-1602" rx="90.45" ry="18"/>
<text xml:space="preserve" text-anchor="middle" x="315.05" y="-1597.8" font-family="Helvetica,sans-Serif" font-size="14.00">EVENT_RECORD</text>
</g>
<!-- n37&#45;&gt;n38 -->
<g id="edge43" class="edge">
<title>n37-&gt;n38</title>
<path fill="none" stroke="black" d="M315.05,-1655.7C315.05,-1648.41 315.05,-1639.73 315.05,-1631.54"/>
<polygon fill="black" stroke="black" points="318.55,-1631.62 315.05,-1621.62 311.55,-1631.62 318.55,-1631.62"/>
</g>
<!-- n39 -->
<g id="node40" class="node">
<title>n39</title>
<polygon fill="#cfe8ff" stroke="black" points="375.18,-1548 254.92,-1548 254.92,-1512 375.18,-1512 375.18,-1548"/>
<text xml:space="preserve" text-anchor="middle" x="315.05" y="-1525.8" font-family="Helvetica,sans-Serif" font-size="14.00">t_rms_norm_fwd</text>
</g>
<!-- n38&#45;&gt;n39 -->
<g id="edge44" class="edge">
<title>n38-&gt;n39</title>
<path fill="none" stroke="black" d="M315.05,-1583.7C315.05,-1576.41 315.05,-1567.73 315.05,-1559.54"/>
<polygon fill="black" stroke="black" points="318.55,-1559.62 315.05,-1549.62 311.55,-1559.62 318.55,-1559.62"/>
</g>
<!-- n40 -->
<g id="node41" class="node">
<title>n40</title>
<polygon fill="#cfe8ff" stroke="black" points="197.83,-1476 124.26,-1476 124.26,-1440 197.83,-1440 197.83,-1476"/>
<text xml:space="preserve" text-anchor="middle" x="161.05" y="-1453.8" font-family="Helvetica,sans-Serif" font-size="14.00">t_matmul</text>
</g>
<!-- n39&#45;&gt;n40 -->
<g id="edge45" class="edge">
<title>n39-&gt;n40</title>
<path fill="none" stroke="black" d="M276.58,-1511.52C255.99,-1502.16 230.44,-1490.54 208.61,-1480.62"/>
<polygon fill="black" stroke="black" points="210.15,-1477.48 199.6,-1476.52 207.26,-1483.85 210.15,-1477.48"/>
</g>
<!-- n41 -->
<g id="node42" class="node">
<title>n41</title>
<polygon fill="#cfe8ff" stroke="black" points="351.83,-1476 278.26,-1476 278.26,-1440 351.83,-1440 351.83,-1476"/>
<text xml:space="preserve" text-anchor="middle" x="315.05" y="-1453.8" font-family="Helvetica,sans-Serif" font-size="14.00">t_matmul</text>
</g>
<!-- n39&#45;&gt;n41 -->
<g id="edge46" class="edge">
<title>n39-&gt;n41</title>
<path fill="none" stroke="black" d="M315.05,-1511.7C315.05,-1504.41 315.05,-1495.73 315.05,-1487.54"/>
<polygon fill="black" stroke="black" points="318.55,-1487.62 315.05,-1477.62 311.55,-1487.62 318.55,-1487.62"/>
</g>
<!-- n42 -->
<g id="node43" class="node">
<title>n42</title>
<polygon fill="#cfe8ff" stroke="black" points="505.83,-1404 432.26,-1404 432.26,-1368 505.83,-1368 505.83,-1404"/>
<text xml:space="preserve" text-anchor="middle" x="469.05" y="-1381.8" font-family="Helvetica,sans-Serif" font-size="14.00">t_matmul</text>
</g>
<!-- n39&#45;&gt;n42 -->
<g id="edge47" class="edge">
<title>n39-&gt;n42</title>
<path fill="none" stroke="black" d="M333.93,-1511.59C361.09,-1486.54 411.33,-1440.22 442.3,-1411.66"/>
<polygon fill="black" stroke="black" points="444.4,-1414.49 449.38,-1405.14 439.65,-1409.34 444.4,-1414.49"/>
</g>
<!-- n43 -->
<g id="node44" class="node">
<title>n43</title>
<polygon fill="#cfe8ff" stroke="black" points="198.1,-1404 0,-1404 0,-1368 198.1,-1368 198.1,-1404"/>
<text xml:space="preserve" text-anchor="middle" x="99.05" y="-1381.8" font-family="Helvetica,sans-Serif" font-size="14.00">t_fused_rms_norm_rope_fwd</text>
</g>
<!-- n40&#45;&gt;n43 -->
<g id="edge48" class="edge">
<title>n40-&gt;n43</title>
<path fill="none" stroke="black" d="M145.72,-1439.7C138.51,-1431.56 129.77,-1421.69 121.81,-1412.7"/>
<polygon fill="black" stroke="black" points="124.45,-1410.4 115.2,-1405.24 119.21,-1415.04 124.45,-1410.4"/>
</g>
<!-- n44 -->
<g id="node45" class="node">
<title>n44</title>
<polygon fill="#cfe8ff" stroke="black" points="414.1,-1404 216,-1404 216,-1368 414.1,-1368 414.1,-1404"/>
<text xml:space="preserve" text-anchor="middle" x="315.05" y="-1381.8" font-family="Helvetica,sans-Serif" font-size="14.00">t_fused_rms_norm_rope_fwd</text>
</g>
<!-- n41&#45;&gt;n44 -->
<g id="edge49" class="edge">
<title>n41-&gt;n44</title>
<path fill="none" stroke="black" d="M315.05,-1439.7C315.05,-1432.41 315.05,-1423.73 315.05,-1415.54"/>
<polygon fill="black" stroke="black" points="318.55,-1415.62 315.05,-1405.62 311.55,-1415.62 318.55,-1415.62"/>
</g>
<!-- n45 -->
<g id="node46" class="node">
<title>n45</title>
<polygon fill="#cfe8ff" stroke="black" points="378.71,-1332 251.39,-1332 251.39,-1296 378.71,-1296 378.71,-1332"/>
<text xml:space="preserve" text-anchor="middle" x="315.05" y="-1309.8" font-family="Helvetica,sans-Serif" font-size="14.00">t_attn_fwd_0_125</text>
</g>
<!-- n42&#45;&gt;n45 -->
<g id="edge50" class="edge">
<title>n42-&gt;n45</title>
<path fill="none" stroke="black" d="M431.77,-1368.05C411.34,-1358.77 385.78,-1347.15 363.79,-1337.16"/>
<polygon fill="black" stroke="black" points="365.25,-1333.98 354.7,-1333.02 362.36,-1340.35 365.25,-1333.98"/>
</g>
<!-- n43&#45;&gt;n45 -->
<g id="edge51" class="edge">
<title>n43-&gt;n45</title>
<path fill="none" stroke="black" d="M153,-1367.52C182.62,-1357.92 219.55,-1345.95 250.67,-1335.86"/>
<polygon fill="black" stroke="black" points="251.54,-1339.26 259.97,-1332.85 249.38,-1332.6 251.54,-1339.26"/>
</g>
<!-- n44&#45;&gt;n45 -->
<g id="edge52" class="edge">
<title>n44-&gt;n45</title>
<path fill="none" stroke="black" d="M315.05,-1367.7C315.05,-1360.41 315.05,-1351.73 315.05,-1343.54"/>
<polygon fill="black" stroke="black" points="318.55,-1343.62 315.05,-1333.62 311.55,-1343.62 318.55,-1343.62"/>
</g>
<!-- n46 -->
<g id="node47" class="node">
<title>n46</title>
<polygon fill="#cfe8ff" stroke="black" points="384.91,-1260 245.19,-1260 245.19,-1224 384.91,-1224 384.91,-1260"/>
<text xml:space="preserve" text-anchor="middle" x="315.05" y="-1237.8" font-family="Helvetica,sans-Serif" font-size="14.00">t_matmul_with_bias</text>
</g>
<!-- n45&#45;&gt;n46 -->
<g id="edge53" class="edge">
<title>n45-&gt;n46</title>
<path fill="none" stroke="black" d="M315.05,-1295.7C315.05,-1288.41 315.05,-1279.73 315.05,-1271.54"/>
<polygon fill="black" stroke="black" points="318.55,-1271.62 315.05,-1261.62 311.55,-1271.62 318.55,-1271.62"/>
</g>
<!-- n47 -->
<g id="node48" class="node">
<title>n47</title>
<ellipse fill="#fff2b3" stroke="black" cx="315.05" cy="-1170" rx="90.45" ry="18"/>
<text xml:space="preserve" text-anchor="middle" x="315.05" y="-1165.8" font-family="Helvetica,sans-Serif" font-size="14.00">EVENT_RECORD</text>
</g>
<!-- n46&#45;&gt;n47 -->
<g id="edge54" class="edge">
<title>n46-&gt;n47</title>
<path fill="none" stroke="black" d="M315.05,-1223.7C315.05,-1216.41 315.05,-1207.73 315.05,-1199.54"/>
<polygon fill="black" stroke="black" points="318.55,-1199.62 315.05,-1189.62 311.55,-1199.62 318.55,-1199.62"/>
</g>
<!-- n48 -->
<g id="node49" class="node">
<title>n48</title>
<polygon fill="#cfe8ff" stroke="black" points="351.83,-1116 278.26,-1116 278.26,-1080 351.83,-1080 351.83,-1116"/>
<text xml:space="preserve" text-anchor="middle" x="315.05" y="-1093.8" font-family="Helvetica,sans-Serif" font-size="14.00">t_matmul</text>
</g>
<!-- n47&#45;&gt;n48 -->
<g id="edge55" class="edge">
<title>n47-&gt;n48</title>
<path fill="none" stroke="black" d="M315.05,-1151.7C315.05,-1144.41 315.05,-1135.73 315.05,-1127.54"/>
<polygon fill="black" stroke="black" points="318.55,-1127.62 315.05,-1117.62 311.55,-1127.62 318.55,-1127.62"/>
</g>
<!-- n49 -->
<g id="node50" class="node">
<title>n49</title>
<polygon fill="#cfe8ff" stroke="black" points="351.83,-1044 278.26,-1044 278.26,-1008 351.83,-1008 351.83,-1044"/>
<text xml:space="preserve" text-anchor="middle" x="315.05" y="-1021.8" font-family="Helvetica,sans-Serif" font-size="14.00">t_matmul</text>
</g>
<!-- n48&#45;&gt;n49 -->
<g id="edge56" class="edge">
<title>n48-&gt;n49</title>
<path fill="none" stroke="black" d="M315.05,-1079.7C315.05,-1072.41 315.05,-1063.73 315.05,-1055.54"/>
<polygon fill="black" stroke="black" points="318.55,-1055.62 315.05,-1045.62 311.55,-1055.62 318.55,-1055.62"/>
</g>
<!-- n50 -->
<g id="node51" class="node">
<title>n50</title>
<polygon fill="#cfe8ff" stroke="black" points="395.82,-972 234.28,-972 234.28,-936 395.82,-936 395.82,-972"/>
<text xml:space="preserve" text-anchor="middle" x="315.05" y="-949.8" font-family="Helvetica,sans-Serif" font-size="14.00">t_attn_bwd_preprocess</text>
</g>
<!-- n49&#45;&gt;n50 -->
<g id="edge57" class="edge">
<title>n49-&gt;n50</title>
<path fill="none" stroke="black" d="M315.05,-1007.7C315.05,-1000.41 315.05,-991.73 315.05,-983.54"/>
<polygon fill="black" stroke="black" points="318.55,-983.62 315.05,-973.62 311.55,-983.62 318.55,-983.62"/>
</g>
<!-- n51 -->
<g id="node52" class="node">
<title>n51</title>
<polygon fill="#cfe8ff" stroke="black" points="357.3,-900 272.8,-900 272.8,-864 357.3,-864 357.3,-900"/>
<text xml:space="preserve" text-anchor="middle" x="315.05" y="-877.8" font-family="Helvetica,sans-Serif" font-size="14.00">t_attn_bwd</text>
</g>
<!-- n50&#45;&gt;n51 -->
<g id="edge58" class="edge">
<title>n50-&gt;n51</title>
<path fill="none" stroke="black" d="M315.05,-935.7C315.05,-928.41 315.05,-919.73 315.05,-911.54"/>
<polygon fill="black" stroke="black" points="318.55,-911.62 315.05,-901.62 311.55,-911.62 318.55,-911.62"/>
</g>
<!-- n52 -->
<g id="node53" class="node">
<title>n52</title>
<polygon fill="#cfe8ff" stroke="black" points="305.82,-828 102.28,-828 102.28,-792 305.82,-792 305.82,-828"/>
<text xml:space="preserve" text-anchor="middle" x="204.05" y="-805.8" font-family="Helvetica,sans-Serif" font-size="14.00">t_fused_rms_norm_rope_zero</text>
</g>
<!-- n51&#45;&gt;n52 -->
<g id="edge59" class="edge">
<title>n51-&gt;n52</title>
<path fill="none" stroke="black" d="M287.32,-863.52C273.31,-854.68 256.12,-843.84 241,-834.3"/>
<polygon fill="black" stroke="black" points="243.02,-831.44 232.7,-829.07 239.29,-837.36 243.02,-831.44"/>
</g>
<!-- n55 -->
<g id="node56" class="node">
<title>n55</title>
<polygon fill="#cfe8ff" stroke="black" points="527.82,-828 324.28,-828 324.28,-792 527.82,-792 527.82,-828"/>
<text xml:space="preserve" text-anchor="middle" x="426.05" y="-805.8" font-family="Helvetica,sans-Serif" font-size="14.00">t_fused_rms_norm_rope_zero</text>
</g>
<!-- n51&#45;&gt;n55 -->
<g id="edge60" class="edge">
<title>n51-&gt;n55</title>
<path fill="none" stroke="black" d="M342.77,-863.52C356.78,-854.68 373.98,-843.84 389.1,-834.3"/>
<polygon fill="black" stroke="black" points="390.81,-837.36 397.4,-829.07 387.07,-831.44 390.81,-837.36"/>
</g>
<!-- n53 -->
<g id="node54" class="node">
<title>n53</title>
<polygon fill="#cfe8ff" stroke="black" points="306.04,-756 104.05,-756 104.05,-720 306.04,-720 306.04,-756"/>
<text xml:space="preserve" text-anchor="middle" x="205.05" y="-733.8" font-family="Helvetica,sans-Serif" font-size="14.00">t_fused_rms_norm_rope_bwd</text>
</g>
<!-- n52&#45;&gt;n53 -->
<g id="edge61" class="edge">
<title>n52-&gt;n53</title>
<path fill="none" stroke="black" d="M204.3,-791.7C204.4,-784.41 204.52,-775.73 204.64,-767.54"/>
<polygon fill="black" stroke="black" points="208.14,-767.67 204.78,-757.62 201.14,-767.57 208.14,-767.67"/>
</g>
<!-- n54 -->
<g id="node55" class="node">
<title>n54</title>
<polygon fill="#cfe8ff" stroke="black" points="329.53,-684 162.57,-684 162.57,-648 329.53,-648 329.53,-684"/>
<text xml:space="preserve" text-anchor="middle" x="246.05" y="-661.8" font-family="Helvetica,sans-Serif" font-size="14.00">t_rms_norm_dw_reduce</text>
</g>
<!-- n53&#45;&gt;n54 -->
<g id="edge62" class="edge">
<title>n53-&gt;n54</title>
<path fill="none" stroke="black" d="M215.18,-719.7C219.75,-711.9 225.25,-702.51 230.33,-693.83"/>
<polygon fill="black" stroke="black" points="233.23,-695.81 235.26,-685.41 227.19,-692.27 233.23,-695.81"/>
</g>
<!-- n58 -->
<g id="node59" class="node">
<title>n58</title>
<polygon fill="#cfe8ff" stroke="black" points="302.83,-612 229.26,-612 229.26,-576 302.83,-576 302.83,-612"/>
<text xml:space="preserve" text-anchor="middle" x="266.05" y="-589.8" font-family="Helvetica,sans-Serif" font-size="14.00">t_matmul</text>
</g>
<!-- n54&#45;&gt;n58 -->
<g id="edge63" class="edge">
<title>n54-&gt;n58</title>
<path fill="none" stroke="black" d="M250.99,-647.7C253.12,-640.24 255.67,-631.32 258.06,-622.97"/>
<polygon fill="black" stroke="black" points="261.36,-624.14 260.75,-613.56 254.63,-622.21 261.36,-624.14"/>
</g>
<!-- n56 -->
<g id="node57" class="node">
<title>n56</title>
<polygon fill="#cfe8ff" stroke="black" points="526.04,-756 324.05,-756 324.05,-720 526.04,-720 526.04,-756"/>
<text xml:space="preserve" text-anchor="middle" x="425.05" y="-733.8" font-family="Helvetica,sans-Serif" font-size="14.00">t_fused_rms_norm_rope_bwd</text>
</g>
<!-- n55&#45;&gt;n56 -->
<g id="edge64" class="edge">
<title>n55-&gt;n56</title>
<path fill="none" stroke="black" d="M425.8,-791.7C425.7,-784.41 425.57,-775.73 425.46,-767.54"/>
<polygon fill="black" stroke="black" points="428.96,-767.57 425.31,-757.62 421.96,-767.67 428.96,-767.57"/>
</g>
<!-- n57 -->
<g id="node58" class="node">
<title>n57</title>
<polygon fill="#cfe8ff" stroke="black" points="497.53,-612 330.57,-612 330.57,-576 497.53,-576 497.53,-612"/>
<text xml:space="preserve" text-anchor="middle" x="414.05" y="-589.8" font-family="Helvetica,sans-Serif" font-size="14.00">t_rms_norm_dw_reduce</text>
</g>
<!-- n56&#45;&gt;n57 -->
<g id="edge65" class="edge">
<title>n56-&gt;n57</title>
<path fill="none" stroke="black" d="M423.7,-719.59C421.84,-695.61 418.47,-652.14 416.25,-623.42"/>
<polygon fill="black" stroke="black" points="419.75,-623.32 415.49,-613.62 412.77,-623.86 419.75,-623.32"/>
</g>
<!-- n60 -->
<g id="node61" class="node">
<title>n60</title>
<polygon fill="#cfe8ff" stroke="black" points="420.83,-468 347.26,-468 347.26,-432 420.83,-432 420.83,-468"/>
<text xml:space="preserve" text-anchor="middle" x="384.05" y="-445.8" font-family="Helvetica,sans-Serif" font-size="14.00">t_matmul</text>
</g>
<!-- n57&#45;&gt;n60 -->
<g id="edge66" class="edge">
<title>n57-&gt;n60</title>
<path fill="none" stroke="black" d="M410.37,-575.59C405.28,-551.5 396.04,-507.75 389.97,-479.03"/>
<polygon fill="black" stroke="black" points="393.47,-478.65 387.98,-469.59 386.62,-480.1 393.47,-478.65"/>
</g>
<!-- n59 -->
<g id="node60" class="node">
<title>n59</title>
<polygon fill="#cfe8ff" stroke="black" points="322.83,-540 249.26,-540 249.26,-504 322.83,-504 322.83,-540"/>
<text xml:space="preserve" text-anchor="middle" x="286.05" y="-517.8" font-family="Helvetica,sans-Serif" font-size="14.00">t_matmul</text>
</g>
<!-- n58&#45;&gt;n59 -->
<g id="edge67" class="edge">
<title>n58-&gt;n59</title>
<path fill="none" stroke="black" d="M270.99,-575.7C273.12,-568.24 275.67,-559.32 278.06,-550.97"/>
<polygon fill="black" stroke="black" points="281.36,-552.14 280.75,-541.56 274.63,-550.21 281.36,-552.14"/>
</g>
<!-- n59&#45;&gt;n60 -->
<g id="edge68" class="edge">
<title>n59-&gt;n60</title>
<path fill="none" stroke="black" d="M310.52,-503.52C322.66,-494.85 337.5,-484.25 350.66,-474.85"/>
<polygon fill="black" stroke="black" points="352.55,-477.8 358.65,-469.14 348.48,-472.1 352.55,-477.8"/>
</g>
<!-- n62 -->
<g id="node63" class="node">
<title>n62</title>
<polygon fill="#cfe8ff" stroke="black" points="371.83,-324 298.26,-324 298.26,-288 371.83,-288 371.83,-324"/>
<text xml:space="preserve" text-anchor="middle" x="335.05" y="-301.8" font-family="Helvetica,sans-Serif" font-size="14.00">t_matmul</text>
</g>
<!-- n59&#45;&gt;n62 -->
<g id="edge69" class="edge">
<title>n59-&gt;n62</title>
<path fill="none" stroke="black" d="M285.87,-503.6C286.06,-473.54 288.59,-410.29 305.05,-360 307.96,-351.1 312.45,-342.01 317.08,-333.93"/>
<polygon fill="black" stroke="black" points="319.92,-335.99 322.12,-325.62 313.94,-332.36 319.92,-335.99"/>
</g>
<!-- n61 -->
<g id="node62" class="node">
<title>n61</title>
<polygon fill="#cfe8ff" stroke="black" points="453.91,-396 314.19,-396 314.19,-360 453.91,-360 453.91,-396"/>
<text xml:space="preserve" text-anchor="middle" x="384.05" y="-373.8" font-family="Helvetica,sans-Serif" font-size="14.00">t_matmul_with_bias</text>
</g>
<!-- n60&#45;&gt;n61 -->
<g id="edge70" class="edge">
<title>n60-&gt;n61</title>
<path fill="none" stroke="black" d="M384.05,-431.7C384.05,-424.41 384.05,-415.73 384.05,-407.54"/>
<polygon fill="black" stroke="black" points="387.55,-407.62 384.05,-397.62 380.55,-407.62 387.55,-407.62"/>
</g>
<!-- n61&#45;&gt;n62 -->
<g id="edge71" class="edge">
<title>n61-&gt;n62</title>
<path fill="none" stroke="black" d="M371.94,-359.7C366.36,-351.73 359.62,-342.1 353.43,-333.26"/>
<polygon fill="black" stroke="black" points="356.49,-331.53 347.89,-325.34 350.76,-335.54 356.49,-331.53"/>
</g>
<!-- n63 -->
<g id="node64" class="node">
<title>n63</title>
<polygon fill="#cfe8ff" stroke="black" points="404.91,-252 265.19,-252 265.19,-216 404.91,-216 404.91,-252"/>
<text xml:space="preserve" text-anchor="middle" x="335.05" y="-229.8" font-family="Helvetica,sans-Serif" font-size="14.00">t_matmul_with_bias</text>
</g>
<!-- n62&#45;&gt;n63 -->
<g id="edge72" class="edge">
<title>n62-&gt;n63</title>
<path fill="none" stroke="black" d="M335.05,-287.7C335.05,-280.41 335.05,-271.73 335.05,-263.54"/>
<polygon fill="black" stroke="black" points="338.55,-263.62 335.05,-253.62 331.55,-263.62 338.55,-263.62"/>
</g>
<!-- n64 -->
<g id="node65" class="node">
<title>n64</title>
<polygon fill="#cfe8ff" stroke="black" points="441.49,-180 228.61,-180 228.61,-144 441.49,-144 441.49,-180"/>
<text xml:space="preserve" text-anchor="middle" x="335.05" y="-157.8" font-family="Helvetica,sans-Serif" font-size="14.00">t_rms_norm_bwd_with_dx_bias</text>
</g>
<!-- n63&#45;&gt;n64 -->
<g id="edge73" class="edge">
<title>n63-&gt;n64</title>
<path fill="none" stroke="black" d="M335.05,-215.7C335.05,-208.41 335.05,-199.73 335.05,-191.54"/>
<polygon fill="black" stroke="black" points="338.55,-191.62 335.05,-181.62 331.55,-191.62 338.55,-191.62"/>
</g>
<!-- n65 -->
<g id="node66" class="node">
<title>n65</title>
<polygon fill="#cfe8ff" stroke="black" points="418.53,-108 251.57,-108 251.57,-72 418.53,-72 418.53,-108"/>
<text xml:space="preserve" text-anchor="middle" x="335.05" y="-85.8" font-family="Helvetica,sans-Serif" font-size="14.00">t_rms_norm_dw_reduce</text>
</g>
<!-- n64&#45;&gt;n65 -->
<g id="edge74" class="edge">
<title>n64-&gt;n65</title>
<path fill="none" stroke="black" d="M335.05,-143.7C335.05,-136.41 335.05,-127.73 335.05,-119.54"/>
<polygon fill="black" stroke="black" points="338.55,-119.62 335.05,-109.62 331.55,-119.62 338.55,-119.62"/>
</g>
<!-- n66 -->
<g id="node67" class="node">
<title>n66</title>
<ellipse fill="#fff2b3" stroke="black" cx="335.05" cy="-18" rx="90.45" ry="18"/>
<text xml:space="preserve" text-anchor="middle" x="335.05" y="-13.8" font-family="Helvetica,sans-Serif" font-size="14.00">EVENT_RECORD</text>
</g>
<!-- n65&#45;&gt;n66 -->
<g id="edge75" class="edge">
<title>n65-&gt;n66</title>
<path fill="none" stroke="black" d="M335.05,-71.7C335.05,-64.41 335.05,-55.73 335.05,-47.54"/>
<polygon fill="black" stroke="black" points="338.55,-47.62 335.05,-37.62 331.55,-47.62 338.55,-47.62"/>
</g>
</g>
</svg>